<svg width="863" height="761" xmlns="http://www.w3.org/2000/svg" preserveAspectRatio="xMidYMid meet">
 <metadata>Created by potrace 1.16, written by Peter Selinger 2001-2019</metadata>

 <g>
  <title>background</title>
  <rect fill="none" id="canvas_background" height="602" width="802" y="-1" x="-1"/>
 </g>
 <g>
  <title>Layer 1</title>
  <g id="svg_1" fill="#000000" transform="translate(0,761) scale(0.10000000149011612,-0.10000000149011612) ">
   <path fill="#ff0000" id="svg_2" d="m4145,6043c-158,-52 -327,-245 -464,-531c-34,-70 -71,-145 -82,-167c-11,-22 -283,-731 -604,-1575c-321,-844 -587,-1543 -590,-1552c-7,-17 7,-18 196,-18l204,0l554,1458c574,1509 640,1676 706,1802c46,86 127,175 169,186c47,11 108,-26 162,-98c83,-113 217,-402 780,-1692c306,-699 558,-1277 561,-1283c4,-10 -197,-13 -986,-13l-991,0l0,-175l0,-175l1265,0c1054,0 1265,2 1265,13c0,8 -6,27 -14,43c-20,41 -1197,2751 -1261,2904c-116,277 -210,451 -327,607c-87,116 -173,194 -266,240c-61,31 -85,37 -150,40c-53,2 -93,-2 -127,-14z"/>
   <path fill="#ff0000" id="svg_3" d="m4215,5510c-15,-16 -1265,-3280 -1265,-3302c0,-5 121,-8 268,-8l269,0l118,327c65,181 124,339 131,353c12,22 13,10 14,-92l0,-118l863,0c824,0 865,1 880,18c10,10 17,22 17,26c0,9 -1174,2704 -1200,2756c-19,36 -45,60 -68,60c-5,0 -17,-9 -27,-20zm323,-1777c144,-335 262,-611 262,-615c0,-5 -221,-8 -491,-8c-389,0 -490,3 -486,13c2,6 103,283 223,614c121,332 222,603 225,603c3,0 123,-273 267,-607z"/>
  </g>
 </g>
</svg>