<?xml version="1.0" encoding="UTF-8"?><svg xmlns="http://www.w3.org/2000/svg" xmlns:xlink="http://www.w3.org/1999/xlink" version="1.1" id="Layer_1" x="0px" y="0px" viewBox="0 0 16 16" xml:space="preserve"><path id="path3763" d="M11.736 13.34a7.221 7.221 0 0 0 3.375-6.133C15.111 3.228 11.927 0 8 0 4.072 0 .889 3.228.889 7.208c0 3.982 3.183 7.208 7.111 7.208.578 0 1.138-.071 1.676-.203.674 1.227 1.704 2.097 3.886 1.682v-1.223s-1.399-.352-1.826-1.332zm-.05-5.178c0 1.203-.384 2.296-1.006 3.102a4.49 4.49 0 0 0-3.56-1.429V11.252s1.055.042 1.776 1.282c-.271.08-.551.123-.842.123-2.006 0-3.631-2.013-3.631-4.496V6.305c0-2.484 1.625-4.497 3.631-4.497s3.633 2.013 3.633 4.497l-.001 1.857z" fill="#F44336"/><metadata><rdf:RDF xmlns:rdf="http://www.w3.org/1999/02/22-rdf-syntax-ns#" xmlns:rdfs="http://www.w3.org/2000/01/rdf-schema#" xmlns:dc="http://purl.org/dc/elements/1.1/"><rdf:Description about="https://iconscout.com/legal#licenses" dc:title="quora,logo,color,e" dc:description="quora,logo,color,e" dc:publisher="Iconscout" dc:date="2018-02-17" dc:format="image/svg+xml" dc:language="en"><dc:creator><rdf:Bag><rdf:li>Pixel Icons</rdf:li></rdf:Bag></dc:creator></rdf:Description></rdf:RDF></metadata></svg>